# xmcd
#
# Track frame offsets:
# 150
# 13796
# 26893
# 39200
# 52282
# 65565
# 80273
# 93001
# 104970
# 116837
# 129944
# 142218
# 156042
# 170374
# 182864
# 196746
#
# Disc length: 2791 seconds
#
#
# Revision: 1
# Processed by: cddbd v1.5.1PL2 Copyright (c) Steve Scherf et al.
# Submitted via: FreeRIP 2.944 
#
DISCID=e00ae510
DTITLE=T-Bone Walker - Discover Blues - T-Bone Walker - Disk 2
DYEAR=1946
DGENRE=Blues
TTITLE0=Stormy Monday
TTITLE1=I'm Gonna Find My Baby
TTITLE2=No Worry Blues
TTITLE3=My Baby Left Me (Blues)
TTITLE4=She's Going To Ruin Me (Blues)
TTITLE5=I Got A Break Baby
TTITLE6=Don't Leave Me Baby
TTITLE7=Lonesome Woman Blues
TTITLE8=That's Better For Me
TTITLE9=Mean Old World Blues
TTITLE10=Bobby Sox Blues
TTITLE11=T-Bone Boogie
TTITLE12=I Can't Stand Being Away From You
TTITLE13=West Side Baby
TTITLE14=Plain Old Down Home Blues
TTITLE15=Hypin' Woman Blues
EXTD=1942 1948
EXTT0=
EXTT1=
EXTT2=
EXTT3=
EXTT4=
EXTT5=
EXTT6=
EXTT7=
EXTT8=
EXTT9=
EXTT10=
EXTT11=
EXTT12=
EXTT13=
EXTT14=
EXTT15=
PLAYORDER=
